<?xml version="1.0" encoding="utf-8"?>
<!-- Generator: Adobe Illustrator 19.1.0, SVG Export Plug-In . SVG Version: 6.00 Build 0)  -->
<svg version="1.1" id="Layer_1" xmlns="http://www.w3.org/2000/svg" xmlns:xlink="http://www.w3.org/1999/xlink" x="0px" y="0px"
	 viewBox="0 0 127 50" enable-background="new 0 0 127 50" xml:space="preserve">
<g>
	<g>
		<path fill="#221F1F" d="M43.9,0C20.7,0.1-2.3,23.2,3.2,37.3c4.6,11.7,30.3,9,42.6-6.9l-15.6,4.4c0,0,0,0,7.1,1
			c-4.1,2.6-12.9,6.2-19.9,3.8C9.7,36.9,9.6,28,16.6,17.7c7-10.3,22.4-15.2,30-14.9c7.6,0.3,16.6,1.8,17,14.1
			C63.6,16.8,66.2-0.1,43.9,0z M17.9,19.6l15.6-4.4c0,0,0,0-7.1-1c4.1-2.6,12.9-6.2,19.9-3.8c7.6,2.7,7.7,11.6,0.8,21.9
			c-7,10.3-22.4,15.2-30,14.9C9.5,47,0.5,45.4,0.1,33.2c0,0-2.6,16.9,19.7,16.8C43,49.9,66,26.8,60.5,12.7
			C55.9,1,30.2,3.7,17.9,19.6z M26.3,22.3l0.2-1.5H22l-1.3,8.3h4.4l0.2-1.5h-2.7l0.3-2h2.6l0.2-1.5h-2.6l0.3-1.8H26.3z M31.1,22.3
			c0.2,0,0.4,0.1,0.6,0.2c0.2,0.1,0.5,0.3,0.8,0.5l0.9-1.2c-0.7-0.7-1.5-1-2.3-1c-0.8,0-1.5,0.2-2,0.7c-0.5,0.5-0.8,1.1-0.8,1.8
			c0,0.4,0.1,0.8,0.3,1.1c0.2,0.3,0.4,0.5,0.5,0.6c0.2,0.1,0.5,0.3,0.9,0.5c0.4,0.2,0.7,0.4,1,0.6c0.2,0.2,0.3,0.4,0.3,0.7
			c0,0.3-0.1,0.5-0.3,0.7c-0.2,0.2-0.5,0.3-0.8,0.3c-0.3,0-0.6-0.1-0.8-0.3c-0.3-0.2-0.5-0.3-0.7-0.5l-1,1.2
			c0.8,0.7,1.7,1.1,2.6,1.1c0.8,0,1.4-0.3,1.9-0.8c0.5-0.5,0.8-1.1,0.8-1.8c0-0.3-0.1-0.6-0.2-0.9s-0.3-0.5-0.4-0.6
			c-0.2-0.1-0.4-0.3-0.9-0.6c-0.5-0.2-0.9-0.4-1.1-0.6c-0.2-0.2-0.3-0.4-0.3-0.6c0-0.3,0.1-0.5,0.3-0.7
			C30.5,22.4,30.8,22.3,31.1,22.3z M40.8,25c0.3-0.5,0.4-1,0.4-1.7c0-0.8-0.3-1.4-0.8-1.8c-0.5-0.4-1.3-0.6-2.4-0.6h-1.6l-1.2,8.3
			H37l0.4-3h0.3l1.5,3h1.7L39.3,26C40,25.8,40.5,25.5,40.8,25z M39.1,24.3c-0.3,0.2-0.7,0.4-1.1,0.4l-0.3,0l0.3-2.3
			c0.5,0,0.9,0.1,1.2,0.3c0.3,0.2,0.4,0.5,0.4,0.8C39.5,23.8,39.4,24.1,39.1,24.3z M69.4,17.6h-2.2l0.3-1.7h2.2l0.2-1.2h-2.2
			l0.2-1.5h2.3l0.2-1.2h-3.7l-1,6.9h3.7L69.4,17.6z M71.1,18.8l1.5-4.3l0.8,4.3H74l2.1-4.1v4.1h1.3v-6.9H76l-1.9,3.9l-0.7-3.9H72
			l-2.3,6.9H71.1z M79.8,16.3c0.7,0,1.2,0,1.5-0.1c0.3,0,0.6-0.1,0.8-0.3c0.3-0.2,0.5-0.4,0.7-0.7c0.2-0.3,0.3-0.7,0.3-1.1
			c0-1.5-0.9-2.2-2.6-2.2H79l-1,6.9h1.4L79.8,16.3z M80.3,13.1h0.3c0.3,0,0.5,0.1,0.7,0.3c0.2,0.2,0.3,0.4,0.3,0.6
			c0,0.3-0.1,0.5-0.3,0.7c-0.2,0.2-0.5,0.3-0.9,0.3H80L80.3,13.1z M85.2,16.3h0.2l1.3,2.5h1.4l-1.3-2.6c0.6-0.1,1-0.4,1.2-0.8
			c0.2-0.4,0.4-0.9,0.4-1.4c0-0.7-0.2-1.2-0.7-1.5c-0.5-0.4-1.1-0.5-2-0.5h-1.3l-1,6.9h1.4L85.2,16.3z M85.7,13.1
			c0.4,0,0.8,0.1,1,0.2c0.2,0.1,0.3,0.4,0.3,0.7c0,0.3-0.1,0.5-0.4,0.7c-0.2,0.2-0.6,0.3-0.9,0.3l-0.3,0L85.7,13.1z M91.2,13.1h2.3
			l0.2-1.2H90l-1,6.9h3.7l0.2-1.2h-2.2l0.3-1.7H93l0.2-1.2H91L91.2,13.1z M97.1,18.2c0.4-0.4,0.7-0.9,0.7-1.5c0-0.3-0.1-0.5-0.2-0.8
			c-0.1-0.2-0.2-0.4-0.4-0.5c-0.1-0.1-0.4-0.3-0.7-0.5c-0.4-0.2-0.7-0.4-0.9-0.5c-0.2-0.2-0.3-0.3-0.3-0.5c0-0.2,0.1-0.4,0.2-0.6
			c0.2-0.2,0.4-0.2,0.6-0.2c0.2,0,0.3,0,0.5,0.1c0.2,0.1,0.4,0.2,0.7,0.4l0.8-1c-0.6-0.5-1.2-0.8-1.9-0.8c-0.7,0-1.2,0.2-1.7,0.6
			c-0.4,0.4-0.7,0.9-0.7,1.5c0,0.4,0.1,0.7,0.2,0.9c0.1,0.2,0.3,0.4,0.4,0.5c0.1,0.1,0.4,0.2,0.8,0.4c0.4,0.1,0.6,0.3,0.8,0.5
			c0.2,0.2,0.3,0.3,0.3,0.6c0,0.2-0.1,0.4-0.3,0.6c-0.2,0.2-0.4,0.2-0.6,0.2c-0.2,0-0.5-0.1-0.7-0.2c-0.2-0.2-0.4-0.3-0.6-0.4
			l-0.8,1c0.7,0.6,1.4,0.9,2.2,0.9C96.1,18.9,96.6,18.7,97.1,18.2z M99.3,18.8l0.7-1.4h2.6l0.3,1.4h1.3l-1.8-6.9h-1l-3.7,6.9H99.3z
			 M101.8,14.2l0.5,2h-1.6L101.8,14.2z M70.2,34.7c0.2-0.4,0.4-0.9,0.4-1.4c0-0.7-0.2-1.2-0.7-1.5c-0.5-0.4-1.1-0.5-2-0.5h-1.3
			l-1,6.9H67l0.4-2.5h0.2l1.3,2.5h1.4L69,35.5C69.5,35.4,70,35.1,70.2,34.7z M68.8,34.1c-0.3,0.2-0.6,0.3-0.9,0.3l-0.3,0l0.3-1.9
			c0.4,0,0.8,0.1,1,0.2c0.2,0.1,0.3,0.4,0.3,0.7C69.1,33.6,69,33.9,68.8,34.1z M73.4,32.4h2.3l0.2-1.2h-3.7l-1,6.9h3.7l0.2-1.2h-2.2
			l0.3-1.7h2.2l0.2-1.2h-2.2L73.4,32.4z M79.4,34.8c-0.1-0.1-0.4-0.3-0.7-0.5c-0.4-0.2-0.7-0.4-0.9-0.5c-0.2-0.2-0.3-0.3-0.3-0.5
			c0-0.2,0.1-0.4,0.2-0.6c0.2-0.2,0.4-0.2,0.6-0.2c0.2,0,0.3,0,0.5,0.1c0.2,0.1,0.4,0.2,0.7,0.4l0.8-1c-0.6-0.5-1.2-0.8-1.9-0.8
			c-0.7,0-1.2,0.2-1.7,0.6c-0.4,0.4-0.7,0.9-0.7,1.5c0,0.4,0.1,0.7,0.2,0.9c0.1,0.2,0.3,0.4,0.4,0.5c0.1,0.1,0.4,0.2,0.8,0.4
			c0.4,0.1,0.6,0.3,0.8,0.5c0.2,0.2,0.3,0.3,0.3,0.6c0,0.2-0.1,0.4-0.3,0.6c-0.2,0.2-0.4,0.2-0.6,0.2c-0.2,0-0.5-0.1-0.7-0.2
			c-0.2-0.2-0.4-0.3-0.6-0.4l-0.8,1c0.7,0.6,1.4,0.9,2.2,0.9c0.6,0,1.2-0.2,1.6-0.6c0.4-0.4,0.7-0.9,0.7-1.5c0-0.3-0.1-0.5-0.2-0.8
			C79.6,35,79.5,34.9,79.4,34.8z M82.6,31.2h-1.4l-1,6.9h1.4l0.4-2.5c0.7,0,1.2,0,1.5-0.1s0.5-0.1,0.8-0.3c0.3-0.2,0.5-0.4,0.7-0.7
			c0.2-0.3,0.3-0.7,0.3-1.1C85.2,31.9,84.4,31.2,82.6,31.2z M83.4,34.1c-0.2,0.2-0.5,0.3-0.9,0.3h-0.4l0.3-1.9h0.3
			c0.3,0,0.5,0.1,0.7,0.3c0.2,0.2,0.3,0.4,0.3,0.6C83.7,33.6,83.6,33.9,83.4,34.1z M89.6,31.1c-1.1,0-2,0.4-2.8,1.1
			c-0.7,0.7-1.1,1.6-1.1,2.6c0,1,0.3,1.9,0.9,2.5c0.6,0.6,1.4,0.9,2.4,0.9c1.1,0,2.1-0.3,2.8-1c0.7-0.7,1.1-1.6,1.1-2.7
			c0-1.1-0.3-1.9-0.9-2.5C91.5,31.4,90.7,31.1,89.6,31.1z M90.8,36.2c-0.4,0.5-1,0.7-1.6,0.7c-0.6,0-1-0.2-1.4-0.6
			c-0.4-0.4-0.6-0.9-0.6-1.6c0-0.7,0.2-1.2,0.7-1.7c0.4-0.5,1-0.7,1.6-0.7c0.6,0,1.1,0.2,1.4,0.6c0.4,0.4,0.5,0.9,0.5,1.6
			C91.5,35.2,91.2,35.8,90.8,36.2z M98.8,31.2l-0.7,4.6l-2.2-4.6h-1.5l-1,6.9h1.4l0.7-4.8l2.3,4.8h1.3l1-6.9H98.8z M103.9,34.8
			c-0.1-0.1-0.4-0.3-0.7-0.5c-0.4-0.2-0.7-0.4-0.9-0.5c-0.2-0.2-0.3-0.3-0.3-0.5c0-0.2,0.1-0.4,0.2-0.6c0.2-0.2,0.4-0.2,0.6-0.2
			c0.2,0,0.3,0,0.5,0.1c0.2,0.1,0.4,0.2,0.7,0.4l0.8-1c-0.6-0.5-1.2-0.8-1.9-0.8c-0.7,0-1.2,0.2-1.7,0.6c-0.4,0.4-0.7,0.9-0.7,1.5
			c0,0.4,0.1,0.7,0.2,0.9c0.1,0.2,0.3,0.4,0.4,0.5c0.1,0.1,0.4,0.2,0.8,0.4c0.4,0.1,0.6,0.3,0.8,0.5c0.2,0.2,0.3,0.3,0.3,0.6
			c0,0.2-0.1,0.4-0.3,0.6c-0.2,0.2-0.4,0.2-0.6,0.2c-0.2,0-0.5-0.1-0.7-0.2c-0.2-0.2-0.4-0.3-0.6-0.4l-0.8,1
			c0.7,0.6,1.4,0.9,2.2,0.9c0.6,0,1.2-0.2,1.6-0.6c0.4-0.4,0.7-0.9,0.7-1.5c0-0.3-0.1-0.5-0.2-0.8C104.1,35,104,34.9,103.9,34.8z
			 M108.2,31.2l-3.7,6.9h1.5l0.7-1.4h2.6l0.3,1.4h1.3l-1.8-6.9H108.2z M107.4,35.5l1.1-2l0.5,2H107.4z M115.7,34.6
			c0.7-0.4,1-1,1-1.6c0-1.2-0.8-1.8-2.4-1.8h-1.6l-1,6.9h2.2c0.9,0,1.7-0.2,2.2-0.5c0.5-0.3,0.8-0.8,0.8-1.4
			C116.8,35.4,116.4,34.9,115.7,34.6z M115,36.7c-0.3,0.2-0.6,0.3-1,0.3h-0.7l0.3-1.9h0.6c0.4,0,0.7,0.1,0.9,0.3
			c0.2,0.2,0.4,0.4,0.4,0.7C115.4,36.3,115.2,36.5,115,36.7z M115.1,33.8c-0.2,0.2-0.5,0.2-0.8,0.2h-0.5l0.2-1.6h0.4
			c0.3,0,0.6,0.1,0.8,0.2c0.2,0.2,0.3,0.4,0.3,0.6C115.4,33.4,115.3,33.6,115.1,33.8z M119.8,31.2h-1.4l-1,6.9h3.7l0.2-1.2H119
			L119.8,31.2z M121.9,38.1h3.7l0.2-1.2h-2.2l0.3-1.7h2.2l0.2-1.2H124l0.2-1.5h2.3l0.2-1.2H123L121.9,38.1z M69.4,27.7
			c0.4-0.4,0.7-0.9,0.7-1.5c0-0.3-0.1-0.5-0.2-0.8c-0.1-0.2-0.2-0.4-0.4-0.5c-0.1-0.1-0.4-0.3-0.7-0.5c-0.4-0.2-0.7-0.4-0.9-0.5
			c-0.2-0.2-0.3-0.3-0.3-0.5c0-0.2,0.1-0.4,0.2-0.6c0.2-0.2,0.4-0.2,0.6-0.2c0.2,0,0.3,0,0.5,0.1c0.2,0.1,0.4,0.2,0.7,0.4l0.8-1
			c-0.6-0.5-1.2-0.8-1.9-0.8c-0.7,0-1.2,0.2-1.7,0.6c-0.4,0.4-0.7,0.9-0.7,1.5c0,0.4,0.1,0.7,0.2,0.9c0.1,0.2,0.3,0.4,0.4,0.5
			c0.1,0.1,0.4,0.2,0.8,0.4c0.4,0.1,0.6,0.3,0.8,0.5c0.2,0.2,0.3,0.3,0.3,0.6c0,0.2-0.1,0.4-0.3,0.6c-0.2,0.2-0.4,0.2-0.6,0.2
			c-0.2,0-0.5-0.1-0.7-0.2c-0.2-0.2-0.4-0.3-0.6-0.4l-0.8,1c0.7,0.6,1.4,0.9,2.2,0.9C68.4,28.3,68.9,28.1,69.4,27.7z M74,28.4
			c1.1,0,2.1-0.3,2.8-1c0.7-0.7,1.1-1.6,1.1-2.7c0-1.1-0.3-1.9-0.9-2.5c-0.6-0.6-1.4-0.9-2.4-0.9c-1.1,0-2,0.3-2.8,1.1
			c-0.7,0.7-1.1,1.6-1.1,2.6c0,1,0.3,1.9,0.9,2.5C72.2,28,73,28.4,74,28.4z M72.9,23.2c0.4-0.5,1-0.7,1.6-0.7c0.6,0,1.1,0.2,1.4,0.6
			c0.4,0.4,0.5,0.9,0.5,1.6c0,0.7-0.2,1.2-0.7,1.7c-0.4,0.5-1,0.7-1.6,0.7c-0.6,0-1-0.2-1.4-0.6c-0.4-0.4-0.6-0.9-0.6-1.6
			C72.2,24.3,72.4,23.7,72.9,23.2z M82.7,22.5c0.6,0,1.1,0.2,1.6,0.6l0.2-1.3c-0.6-0.4-1.3-0.6-2.1-0.6c-0.9,0-1.8,0.3-2.5,1
			C79,23,78.7,24,78.7,25.1c0,0.9,0.3,1.6,0.9,2.3c0.6,0.6,1.4,1,2.4,1c0.6,0,1.2-0.1,1.7-0.4l0.2-1.4c-0.6,0.3-1.2,0.5-1.7,0.5
			c-0.6,0-1.1-0.2-1.4-0.6c-0.4-0.4-0.6-0.9-0.6-1.4c0-0.7,0.3-1.2,0.8-1.8C81.4,22.8,82,22.5,82.7,22.5z M86.9,21.4h-1.4l-1,6.9
			h1.4L86.9,21.4z M90.3,21.4l-3.7,6.9h1.5l0.7-1.4h2.6l0.3,1.4H93l-1.8-6.9H90.3z M89.5,25.7l1.1-2l0.5,2H89.5z M94.7,21.4l-1,6.9
			h3.7l0.2-1.2h-2.3l0.8-5.7H94.7z M105.5,28.3v-6.9h-1.3l-1.9,3.9l-0.7-3.9h-1.3l-2.3,6.9h1.4l1.5-4.3l0.8,4.3h0.7l2.1-4.1v4.1
			H105.5z M110.1,27h-2.2l0.3-1.7h2.2l0.2-1.2h-2.2l0.2-1.5h2.3l0.2-1.2h-3.7l-1,6.9h3.7L110.1,27z M112.3,28.3l0.7-4.8l2.3,4.8h1.3
			l1-6.9h-1.4l-0.7,4.6l-2.2-4.6h-1.5l-1,6.9H112.3z M118.7,28.3h1.4l0.8-5.7h1.4l0.2-1.2h-4.2l-0.2,1.2h1.4L118.7,28.3z
			 M123.3,21.4l-1,6.9h3.7l0.2-1.2h-2.2l0.3-1.7h2.2l0.2-1.2h-2.2l0.2-1.5h2.3l0.2-1.2H123.3z"/>
	</g>
</g>
</svg>
