<?xml version="1.0" encoding="utf-8"?>
<!-- Generator: Adobe Illustrator 19.1.0, SVG Export Plug-In . SVG Version: 6.00 Build 0)  -->
<svg version="1.1" id="Layer_1" xmlns="http://www.w3.org/2000/svg" xmlns:xlink="http://www.w3.org/1999/xlink" x="0px" y="0px"
	 viewBox="0 0 46 50" enable-background="new 0 0 46 50" xml:space="preserve">
<path fill="#221F1F" d="M36.1,25c-6.8-0.1-9.9-4.8-9.9-12.2c0-3.6,1.7-5.9,3.5-5.9c1.8,0,3.2,1.7,3.2,5.1c0,2-0.4,4.2-0.8,5.4
	c1.1,2.1,2.7,3,6.3,2.3c1.1-2.5,1.8-5.5,1.8-8.4C40.2,4,36.3,0,29.8,0C23,0,19,5.7,19,13c0,7.2,3.3,13,8.5,15.8
	c-2.2,4.7-5.4,9.6-8.3,12.7C14,34.6,9.6,24.9,7.6,7.1H0c2.9,29.1,13.8,40.3,16.7,42.1c1.6,1,3,1,4.4,0.1c2.3-1.4,9.4-10,13.2-18.6
	c3.4,0,8.5-1.2,11.6-3.8l0.1-0.3v-5.3C42.8,23.7,38.9,25,36.1,25z"/>
</svg>
